<?xml version="1.0" encoding="UTF-8"?>
<svg xmlns="http://www.w3.org/2000/svg" xmlns:xlink="http://www.w3.org/1999/xlink" width="48pt" height="48pt" viewBox="0 0 48 48" version="1.1">
<g id="surface1">
<path style=" stroke:none;fill-rule:nonzero;fill:rgb(98.039216%,29.411765%,29.411765%);fill-opacity:1;" d="M 39.75 18.199219 C 39.75 31.976562 24 45.75 24 45.75 C 24 45.75 8.25 31.976562 8.25 18.199219 C 8.25 9.5 15.300781 2.449219 24 2.449219 C 32.699219 2.449219 39.75 9.5 39.75 18.199219 Z M 39.75 18.199219 "/>
<path style=" stroke:none;fill-rule:nonzero;fill:rgb(86.27451%,23.529412%,27.45098%);fill-opacity:1;" d="M 14.71875 35.214844 C 17.421875 39.050781 20.535156 42.582031 24 45.75 C 24 45.75 37.199219 34.199219 39.425781 21.675781 C 33.316406 28.453125 24.378906 33.375 14.71875 35.214844 Z M 14.71875 35.214844 "/>
<path style=" stroke:none;fill-rule:nonzero;fill:rgb(93.333333%,93.333333%,93.333333%);fill-opacity:1;" d="M 36.75 18 C 36.75 25.042969 31.042969 30.75 24 30.75 C 16.957031 30.75 11.25 25.042969 11.25 18 C 11.25 10.957031 16.957031 5.25 24 5.25 C 31.042969 5.25 36.75 10.957031 36.75 18 Z M 36.75 18 "/>
<path style=" stroke:none;fill-rule:nonzero;fill:rgb(67.843137%,16.470588%,21.568627%);fill-opacity:1;" d="M 30.75 14.25 L 30.75 13.5 C 30.75 12.257812 29.742188 11.25 28.5 11.25 L 27 11.25 L 27 9 L 21 9 L 21 11.25 L 19.5 11.25 C 18.257812 11.25 17.25 12.257812 17.25 13.5 L 17.25 14.25 L 15.75 14.25 L 15.75 15.75 L 17.25 15.75 L 17.25 22.5 C 17.25 22.914062 17.585938 23.25 18 23.25 L 18.75 23.25 L 18.75 25.5 L 21.75 25.5 L 21.75 23.25 L 26.25 23.25 L 26.25 25.5 L 29.25 25.5 L 29.25 23.25 L 30 23.25 C 30.414062 23.25 30.75 22.914062 30.75 22.5 L 30.75 15.75 L 32.25 15.75 L 32.25 14.25 Z M 19.875 21.75 C 19.253906 21.75 18.75 21.246094 18.75 20.625 C 18.75 20.003906 19.253906 19.5 19.875 19.5 C 20.496094 19.5 21 20.003906 21 20.625 C 21 21.246094 20.496094 21.75 19.875 21.75 Z M 28.125 21.75 C 27.503906 21.75 27 21.246094 27 20.625 C 27 20.003906 27.503906 19.5 28.125 19.5 C 28.746094 19.5 29.25 20.003906 29.25 20.625 C 29.25 21.246094 28.746094 21.75 28.125 21.75 Z M 29.25 18 L 18.75 18 L 18.75 13.5 C 18.75 13.085938 19.085938 12.75 19.5 12.75 L 28.5 12.75 C 28.914062 12.75 29.25 13.085938 29.25 13.5 Z M 29.25 18 "/>
</g>
</svg>
